<svg xmlns="http://www.w3.org/2000/svg" width="20" height="20" viewBox="0 0 1024 1024">
    <path fill="#6C707E" d="M832 153.6c63.601778 0 115.2 51.598222 115.2 115.2v486.4a115.2 115.2 0 0 1-115.2 115.2H192a115.2 115.2 0 0 1-115.2-115.2V486.4a38.4 38.4 0 1 1 76.8 0v268.8c0 21.219556 17.180444 38.4 38.4 38.4h640a38.4 38.4 0 0 0 38.4-38.4v-486.4a38.4 38.4 0 0 0-38.4-38.4H486.4a38.4 38.4 0 1 1 0-76.8h345.6z m-182.442667 264.760889l104.96 89.6a39.253333 39.253333 0 0 1 0 59.278222l-104.96 89.6a36.295111 36.295111 0 0 1-52.280889-5.176889 39.310222 39.310222 0 0 1 5.006223-54.044444l70.257777-60.017778-70.257777-59.960889a39.310222 39.310222 0 0 1-7.281778-50.915555l2.275555-3.185778a36.295111 36.295111 0 0 1 52.280889-5.12z m-197.233777 5.176889c13.084444 16.384 10.808889 40.561778-5.006223 54.044444L377.002667 537.6l70.314666 59.960889c14.791111 12.686222 17.692444 34.702222 7.281778 50.915555l-2.275555 3.185778a36.295111 36.295111 0 0 1-52.280889 5.12L295.082667 567.296a39.253333 39.253333 0 0 1 0-59.278222l104.96-89.6a36.295111 36.295111 0 0 1 52.280889 5.176889zM223.004444 88.632889c4.096 1.365333 7.395556 4.608 8.704 8.760889l18.944 58.993778c8.362667 25.998222 28.785778 46.421333 54.784 54.784l58.936889 18.944a13.539556 13.539556 0 0 1 0 25.770666l-58.936889 18.944a84.764444 84.764444 0 0 0-54.784 54.784l-18.944 58.993778a13.539556 13.539556 0 0 1-25.827555 0l-18.887111-58.993778a84.764444 84.764444 0 0 0-54.784-54.784l-58.993778-18.944a13.539556 13.539556 0 0 1 0-25.770666l58.993778-18.944a84.764444 84.764444 0 0 0 54.784-54.784l18.887111-58.993778a13.539556 13.539556 0 0 1 17.066667-8.760889z"/>
</svg>
